<svg height="512pt" viewBox="0 -54 512.00038 512" width="512pt" xmlns="http://www.w3.org/2000/svg"><path d="m158.367188 7.625h-42.726563c-8.136719 0-14.730469 6.59375-14.730469 14.730469v48.042969h72.1875v-48.042969c0-8.136719-6.59375-14.730469-14.730468-14.730469zm0 0" fill="#5c586f"/><path d="m145.636719 7.625h-30c-8.132813 0-14.726563 6.59375-14.726563 14.730469v48.042969h30v-48.042969c0-8.136719 6.59375-14.730469 14.726563-14.730469zm0 0" fill="#423e4f"/><path d="m353.632812 7.625h42.726563c8.136719 0 14.730469 6.59375 14.730469 14.730469v48.042969h-72.1875v-48.042969c0-8.136719 6.59375-14.730469 14.730468-14.730469zm0 0" fill="#5c586f"/><path d="m383.632812 7.625h-30c-8.136718 0-14.730468 6.59375-14.730468 14.730469v48.042969h30v-48.042969c0-8.136719 6.59375-14.730469 14.730468-14.730469zm0 0" fill="#423e4f"/><path d="m434.558594 57.875c-5.363282-7.664062-14.113282-12.230469-23.46875-12.230469h-72.1875c-7.589844 0-14.871094 3.015625-20.238282 8.382813l-10.621093 10.621094c-7.382813 7.382812-17.398438 11.53125-27.839844 11.53125h-48.40625c-10.441406 0-20.457031-4.148438-27.84375-11.53125l-10.617187-10.621094c-5.367188-5.367188-12.648438-8.382813-20.242188-8.382813h-72.1875c-9.351562 0-18.105469 4.566407-23.464844 12.230469-20.796875 29.730469-69.941406 111.191406-69.941406 217.117188 0 42.613281 9.191406 71.46875 20.582031 90.859374 21.117188 35.964844 70.804688 41.304688 99.40625 10.953126 31.945313-33.910157 48.828125-87.5625 77.140625-87.5625h102.738282c28.3125 0 45.195312 53.652343 77.144531 87.5625 28.597656 30.351562 78.285156 25.011718 99.40625-10.953126 11.386719-19.390624 20.578125-48.246093 20.578125-90.859374.003906-105.925782-49.140625-187.386719-69.9375-217.117188zm0 0" fill="#817cd0"/><path d="m58.082031 365.851562c-11.390625-19.390624-20.582031-48.246093-20.582031-90.859374 0-105.925782 49.144531-187.386719 69.941406-217.117188 5.363282-7.664062 14.113282-12.230469 23.46875-12.230469h-30c-9.355468 0-18.105468 4.566407-23.46875 12.230469-20.796875 29.730469-69.941406 111.191406-69.941406 217.117188 0 42.613281 9.191406 71.46875 20.582031 90.859374 14.675781 24.996094 43.152344 35.183594 68.761719 28.890626-15.546875-3.804688-29.753906-13.554688-38.761719-28.890626zm0 0" fill="#736acb"/><path d="m153.546875 154.34375h-11.574219c-4.984375 0-9.027344-4.042969-9.027344-9.027344v-11.578125c0-4.984375-4.042968-9.027343-9.027343-9.027343h-21.945313c-4.984375 0-9.027344 4.042968-9.027344 9.027343v11.578125c0 4.984375-4.042968 9.027344-9.027343 9.027344h-11.574219c-4.988281 0-9.03125 4.042969-9.03125 9.027344v21.945312c0 4.984375 4.042969 9.027344 9.03125 9.027344h11.574219c4.984375 0 9.027343 4.042969 9.027343 9.027344v11.574218c0 4.988282 4.042969 9.027344 9.027344 9.027344h21.945313c4.984375 0 9.027343-4.039062 9.027343-9.027344v-11.574218c0-4.984375 4.042969-9.027344 9.027344-9.027344h11.574219c4.988281 0 9.027344-4.042969 9.027344-9.027344v-21.945312c0-4.984375-4.039063-9.027344-9.027344-9.027344zm0 0" fill="#423e4f"/><path d="m416.261719 132.160156c0 9.632813-7.8125 17.445313-17.449219 17.445313s-17.445312-7.8125-17.445312-17.445313c0-9.636718 7.808593-17.449218 17.445312-17.449218s17.449219 7.8125 17.449219 17.449218zm0 0" fill="#f4e64c"/><path d="m416.261719 221.421875c0 9.636719-7.8125 17.445313-17.449219 17.445313s-17.445312-7.808594-17.445312-17.445313 7.808593-17.449219 17.445312-17.449219 17.449219 7.8125 17.449219 17.449219zm0 0" fill="#00c67f"/><path d="m455.890625 176.789062c0 9.636719-7.8125 17.449219-17.445313 17.449219-9.636718 0-17.449218-7.8125-17.449218-17.449219 0-9.632812 7.8125-17.445312 17.449218-17.445312 9.632813 0 17.445313 7.8125 17.445313 17.445312zm0 0" fill="#00c8de"/><path d="m376.628906 176.789062c0 9.636719-7.8125 17.449219-17.445312 17.449219-9.636719 0-17.449219-7.8125-17.449219-17.449219 0-9.632812 7.8125-17.445312 17.449219-17.445312 9.632812 0 17.445312 7.8125 17.445312 17.445312zm0 0" fill="#ff6f7f"/><path d="m305.140625 159.539062c0 27.136719-22 49.136719-49.140625 49.136719s-49.140625-22-49.140625-49.136719c0-27.140624 22-49.140624 49.140625-49.140624s49.140625 22 49.140625 49.140624zm0 0" fill="#e4e4e4"/><path d="m273.710938 159.539062c0 9.777344-7.929688 17.707032-17.710938 17.707032s-17.710938-7.929688-17.710938-17.707032c0-9.78125 7.929688-17.710937 17.710938-17.710937s17.710938 7.929687 17.710938 17.710937zm0 0" fill="#00c67f"/><path d="m176.851562 236.230469v12.992187c0 4.144532 3.359376 7.503906 7.503907 7.503906s7.503906-3.359374 7.503906-7.503906v-12.992187c0-4.144531-3.359375-7.503907-7.503906-7.503907-4.144531-.003906-7.503907 3.359376-7.503907 7.503907zm0 0"/><path d="m327.949219 228.722656c-4.144531 0-7.503907 3.363282-7.503907 7.503906v12.996094c0 4.144532 3.359376 7.503906 7.503907 7.503906s7.503906-3.359374 7.503906-7.503906v-12.996094c0-4.140624-3.359375-7.503906-7.503906-7.503906zm0 0"/><path d="m268.222656 243.378906c-2.929687 3.351563-7.328125 5.277344-12.070312 5.277344-4.742188 0-9.140625-1.925781-12.070313-5.277344-2.726562-3.121094-7.46875-3.4375-10.589843-.710937-3.121094 2.726562-3.4375 7.46875-.710938 10.589843 5.78125 6.613282 14.300781 10.40625 23.371094 10.40625 9.074218 0 17.589844-3.792968 23.371094-10.40625 2.726562-3.121093 2.410156-7.863281-.710938-10.589843-3.121094-2.726563-7.863281-2.410157-10.589844.710937zm0 0"/><path d="m102.035156 231.488281h21.957032c9.117187 0 16.535156-7.417969 16.535156-16.539062v-11.582031c0-.84375.6875-1.527344 1.53125-1.527344h11.582031c9.117187 0 16.539063-7.417969 16.539063-16.539063v-21.957031c0-9.117188-7.421876-16.539062-16.539063-16.539062h-11.582031c-.84375 0-1.53125-.683594-1.53125-1.527344v-11.582032c0-9.117187-7.417969-16.539062-16.535156-16.539062h-21.957032c-9.121094 0-16.539062 7.417969-16.539062 16.539062v11.582032c0 .84375-.6875 1.527344-1.527344 1.527344h-11.582031c-9.121094 0-16.539063 7.421874-16.539063 16.539062v21.957031c0 9.121094 7.417969 16.539063 16.539063 16.539063h11.582031c.84375 0 1.527344.683594 1.527344 1.527344v11.582031c0 9.121093 7.417968 16.539062 16.539062 16.539062zm-18.066406-44.65625h-11.582031c-.84375 0-1.53125-.6875-1.53125-1.53125v-21.957031c0-.84375.6875-1.527344 1.53125-1.527344h11.582031c9.117188 0 16.539062-7.421875 16.539062-16.539062v-11.582032c0-.84375.683594-1.527343 1.527344-1.527343h21.957032c.84375 0 1.527343.683593 1.527343 1.527343v11.582032c0 9.117187 7.421875 16.539062 16.539063 16.539062h11.582031c.84375 0 1.53125.683594 1.53125 1.527344v21.957031c0 .84375-.6875 1.53125-1.53125 1.53125h-11.582031c-9.117188 0-16.539063 7.417969-16.539063 16.535157v11.582031c0 .84375-.683593 1.53125-1.527343 1.53125h-21.957032c-.84375 0-1.527344-.6875-1.527344-1.53125v-11.582031c-.003906-9.117188-7.421874-16.535157-16.539062-16.535157zm0 0"/><path d="m399.050781 157.074219c13.765625 0 24.964844-11.199219 24.964844-24.960938 0-13.765625-11.199219-24.960937-24.964844-24.960937-13.761719 0-24.960937 11.195312-24.960937 24.960937 0 13.761719 11.199218 24.960938 24.960937 24.960938zm0-34.914063c5.488281 0 9.953125 4.464844 9.953125 9.953125 0 5.484375-4.464844 9.953125-9.953125 9.953125s-9.949219-4.464844-9.949219-9.953125 4.460938-9.953125 9.949219-9.953125zm0 0"/><path d="m399.050781 246.390625c13.765625 0 24.964844-11.199219 24.964844-24.960937 0-13.765626-11.199219-24.964844-24.964844-24.964844-13.761719 0-24.960937 11.199218-24.960937 24.964844 0 13.761718 11.199218 24.960937 24.960937 24.960937zm0-34.914063c5.488281 0 9.953125 4.464844 9.953125 9.953126 0 5.488281-4.464844 9.953124-9.953125 9.953124s-9.949219-4.464843-9.949219-9.953124c0-5.488282 4.460938-9.953126 9.949219-9.953126zm0 0"/><path d="m463.667969 176.769531c0-13.761719-11.199219-24.960937-24.960938-24.960937-13.765625 0-24.960937 11.199218-24.960937 24.960937 0 13.765625 11.195312 24.960938 24.960937 24.960938s24.960938-11.195313 24.960938-24.960938zm-34.914063 0c0-5.488281 4.464844-9.953125 9.953125-9.953125s9.953125 4.464844 9.953125 9.953125-4.464844 9.953125-9.953125 9.953125-9.953125-4.464844-9.953125-9.953125zm0 0"/><path d="m359.398438 201.730469c13.761718 0 24.960937-11.195313 24.960937-24.960938 0-13.761719-11.199219-24.960937-24.960937-24.960937-13.765626 0-24.964844 11.199218-24.964844 24.960937.003906 13.765625 11.199218 24.960938 24.964844 24.960938zm0-34.914063c5.488281 0 9.949218 4.464844 9.949218 9.953125s-4.464844 9.953125-9.949218 9.953125c-5.488282 0-9.953126-4.464844-9.953126-9.953125s4.464844-9.953125 9.953126-9.953125zm0 0"/><path d="m312.824219 159.507812c0-31.25-25.421875-56.671874-56.671875-56.671874s-56.671875 25.421874-56.671875 56.671874 25.421875 56.671876 56.671875 56.671876 56.671875-25.421876 56.671875-56.671876zm-56.671875 41.664063c-22.972656 0-41.664063-18.691406-41.664063-41.664063 0-22.976562 18.691407-41.664062 41.664063-41.664062 22.976562 0 41.664062 18.6875 41.664062 41.664062 0 22.972657-18.6875 41.664063-41.664062 41.664063zm0 0"/><path d="m256.152344 134.28125c-13.90625 0-25.222656 11.316406-25.222656 25.226562 0 13.910157 11.316406 25.226563 25.222656 25.226563 13.910156 0 25.226562-11.316406 25.226562-25.226563 0-13.910156-11.316406-25.226562-25.226562-25.226562zm0 35.441406c-5.632813 0-10.214844-4.582031-10.214844-10.214844 0-5.632812 4.582031-10.214843 10.214844-10.214843 5.632812 0 10.21875 4.582031 10.21875 10.214843-.003906 5.632813-4.585938 10.214844-10.21875 10.214844zm0 0"/><path d="m54.539062 95.136719c3.613282 2.03125 8.1875.75 10.21875-2.863281 5.96875-10.625 12.496094-21.0625 18.878907-30.1875 3.960937-5.65625 10.4375-9.035157 17.332031-9.035157h72.230469c5.648437 0 10.953125 2.199219 14.945312 6.191407l10.625 10.625c8.859375 8.855468 20.636719 13.734374 33.164063 13.734374h48.4375c12.527344 0 24.304687-4.878906 33.164062-13.734374l10.625-10.625c3.992188-3.992188 9.300782-6.191407 14.945313-6.191407h72.230469c6.894531 0 13.375 3.378907 17.332031 9.035157 18.980469 27.136718 63.628906 100.636718 68.234375 196.824218.191406 4.019532 3.511718 7.144532 7.492187 7.144532.121094 0 .242188-.003907.363281-.007813 4.140626-.199219 7.335938-3.714844 7.136719-7.855469-4.792969-100.097656-51.199219-176.503906-70.925781-204.710937-5.304688-7.578125-13.257812-12.746094-22.128906-14.636719v-16.601562c0-12.265626-9.976563-22.242188-22.242188-22.242188h-42.753906c-12.265625 0-22.242188 9.976562-22.242188 22.242188v16.582031c-6.789062 1.425781-13.03125 4.78125-18.054687 9.804687l-10.625 10.625c-6.023437 6.023438-14.03125 9.339844-22.550781 9.339844h-48.4375c-8.519532 0-16.527344-3.316406-22.550782-9.339844l-10.625-10.625c-5.019531-5.023437-11.261718-8.378906-18.054687-9.804687v-16.582031c0-12.265626-9.976563-22.242188-22.242187-22.242188h-42.753907c-12.265625 0-22.242187 9.976562-22.242187 22.242188v16.605468c-8.867188 1.886719-16.824219 7.054688-22.125 14.636719-6.757813 9.65625-13.371094 20.234375-19.667969 31.433594-2.03125 3.613281-.746094 8.1875 2.867187 10.21875zm299.304688-80.128907h42.753906c3.988282 0 7.234375 3.246094 7.234375 7.234376v15.800781h-57.222656v-15.800781c0-3.988282 3.246094-7.234376 7.234375-7.234376zm-238.136719 0h42.753907c3.988281 0 7.234374 3.246094 7.234374 7.234376v15.800781h-57.222656v-15.800781c.003906-3.988282 3.246094-7.234376 7.234375-7.234376zm0 0"/><path d="m73.964844 403.742188c2.699218.304687 5.386718.453124 8.058594.453124 19.273437 0 37.523437-7.839843 51.003906-22.144531 12.5625-13.332031 22.921875-29.65625 32.066406-44.058593 13.449219-21.183594 26.152344-41.195313 39.660156-41.195313h102.800782c13.503906 0 26.207031 20.011719 39.660156 41.195313 9.140625 14.402343 19.503906 30.726562 32.066406 44.058593 15.347656 16.289063 36.875 24.195313 59.0625 21.691407 22.03125-2.484376 41.109375-14.878907 52.335938-33.996094 12.617187-21.484375 19.789062-48.835938 21.3125-81.292969.195312-4.140625-3.003907-7.652344-7.144532-7.847656-4.152344-.191407-7.652344 3.003906-7.847656 7.144531-1.410156 30-7.890625 55.03125-19.261719 74.398438-8.8125 15.003906-23.785156 24.730468-41.078125 26.679687-17.445312 1.96875-34.378906-4.253906-46.457031-17.070313-11.578125-12.289062-21.105469-27.296874-30.316406-41.804687-16.40625-25.847656-30.574219-48.164063-52.332031-48.164063h-102.800782c-21.757812 0-35.925781 22.316407-52.332031 48.164063-9.210937 14.507813-18.738281 29.515625-30.320313 41.804687-12.074218 12.816407-29.007812 19.039063-46.453124 17.070313-17.292969-1.949219-32.265626-11.675781-41.078126-26.679687-12.980468-22.105469-19.5625-51.414063-19.5625-87.113282 0-52.699218 12.210938-105.394531 36.292969-156.632812 1.761719-3.75.152344-8.21875-3.597656-9.984375-3.75-1.761719-8.222656-.152344-9.984375 3.601562-25.027344 53.246094-37.71875 108.089844-37.71875 163.011719 0 38.410156 7.277344 70.277344 21.628906 94.714844 11.226563 19.117187 30.300782 31.511718 52.335938 33.996094zm0 0"/></svg>